<?xml version="1.0" encoding="UTF-8" standalone="no"?>
<!-- Created with Inkscape (http://www.inkscape.org/) -->

<svg
   xmlns:dc="http://purl.org/dc/elements/1.1/"
   xmlns:cc="http://creativecommons.org/ns#"
   xmlns:rdf="http://www.w3.org/1999/02/22-rdf-syntax-ns#"
   xmlns:svg="http://www.w3.org/2000/svg"
   xmlns="http://www.w3.org/2000/svg"
   xmlns:sodipodi="http://sodipodi.sourceforge.net/DTD/sodipodi-0.dtd"
   xmlns:inkscape="http://www.inkscape.org/namespaces/inkscape"
   width="36mm"
   height="36mm"
   viewBox="0 0 36 36"
   version="1.1"
   id="svg8"
   inkscape:version="0.92.4 5da689c313, 2019-01-14"
   sodipodi:docname="logorcarrenho.svg">
  <defs
     id="defs2" />
  <sodipodi:namedview
     id="base"
     pagecolor="#ffffff"
     bordercolor="#666666"
     borderopacity="1.0"
     inkscape:pageopacity="0.0"
     inkscape:pageshadow="2"
     inkscape:zoom="1.979899"
     inkscape:cx="158.52961"
     inkscape:cy="22.98313"
     inkscape:document-units="mm"
     inkscape:current-layer="layer1"
     showgrid="false"
     inkscape:window-width="2560"
     inkscape:window-height="1040"
     inkscape:window-x="1366"
     inkscape:window-y="0"
     inkscape:window-maximized="1" />
  <metadata
     id="metadata5">
    <rdf:RDF>
      <cc:Work
         rdf:about="">
        <dc:format>image/svg+xml</dc:format>
        <dc:type
           rdf:resource="http://purl.org/dc/dcmitype/StillImage" />
        <dc:title></dc:title>
      </cc:Work>
    </rdf:RDF>
  </metadata>
  <g
     inkscape:label="Camada 1"
     inkscape:groupmode="layer"
     id="layer1"
     transform="translate(0,-261)">
    <path
       inkscape:connector-curvature="0"
       id="path821"
       style="font-style:normal;font-variant:normal;font-weight:normal;font-stretch:normal;font-size:50.79999924px;line-height:1.25;font-family:Montserrat;-inkscape-font-specification:Montserrat;letter-spacing:0px;word-spacing:0px;fill:#3fd660;fill-opacity:1;stroke:#3fd660;stroke-width:0.14563145;stroke-opacity:1"
       d="m 27.395589,289.13466 q -2.935931,0 -5.312633,-1.28621 -2.348744,-1.31418 -3.690883,-3.57904 -1.34214,-2.29283 -1.34214,-5.14487 0,-2.85204 1.34214,-5.1169 1.342139,-2.29282 3.718844,-3.57904 2.376703,-1.31419 5.312632,-1.31419 2.292822,0 4.194185,0.78293 1.901366,0.75495 3.243505,2.26486 l -1.817481,1.76155 q -2.208937,-2.32078 -5.508363,-2.32078 -2.180976,0 -3.942535,0.97865 -1.761554,0.97864 -2.768159,2.71223 -0.978644,1.70563 -0.978644,3.83069 0,2.12506 0.978644,3.85865 1.006605,1.70564 2.768159,2.68428 1.761559,0.97864 3.942535,0.97864 3.271464,0 5.508363,-2.34874 l 1.817481,1.76156 q -1.342139,1.5099 -3.271465,2.29281 -1.901365,0.78292 -4.194185,0.78292 z" />
    <path
       inkscape:connector-curvature="0"
       id="path819"
       style="font-style:normal;font-variant:normal;font-weight:normal;font-stretch:normal;font-size:50.79999924px;line-height:1.25;font-family:Montserrat;-inkscape-font-specification:Montserrat;letter-spacing:0px;word-spacing:0px;fill:#000000;fill-opacity:1;stroke:none;stroke-width:0.14563145"
       d="M 13.690273,288.91098 9.4681269,282.8993 q -0.7829147,0.0559 -1.2302945,0.0559 H 3.4005387 v 5.95574 H 0.60441494 V 269.33807 H 8.2378324 q 3.8027276,0 5.9837046,1.81749 2.180977,1.81748 2.180977,5.00506 0,2.26486 -1.118449,3.85865 -1.118451,1.59379 -3.187582,2.32078 l 4.641566,6.57089 z m -5.5363243,-8.33245 q 2.6563173,0 4.0543793,-1.14642 1.398062,-1.14641 1.398062,-3.27146 0,-2.12506 -1.398062,-3.2435 -1.398062,-1.14641 -4.0543793,-1.14641 h -4.75341 v 8.80779 z" />
  </g>
</svg>
